<svg xmlns="http://www.w3.org/2000/svg" height="1000" width="642.857"><path d="M599.85 482.176q0 7.254-5.58 12.834L334.242 755.038q-5.58 5.58-12.834 5.58t-12.834-5.58L48.546 495.01q-5.58-5.58-5.58-12.834t5.58-12.834l27.9-27.9q5.58-5.58 12.834-5.58t12.834 5.58l219.294 219.294 219.294-219.294q5.58-5.58 12.834-5.58t12.834 5.58l27.9 27.9q5.58 5.58 5.58 12.834zm0-214.272q0 7.254-5.58 12.834L334.242 540.766q-5.58 5.58-12.834 5.58t-12.834-5.58L48.546 280.738q-5.58-5.58-5.58-12.834t5.58-12.834l27.9-27.9q5.58-5.58 12.834-5.58t12.834 5.58l219.294 219.294L540.702 227.17q5.58-5.58 12.834-5.58t12.834 5.58l27.9 27.9q5.58 5.58 5.58 12.834z" fill="#FFF"/></svg>